solid OpenSCAD_Model
  facet normal -1 0 0
    outer loop
      vertex -2 40 2.00001
      vertex -2 39.5355 3.46448
      vertex -2 40 4.15962
    endloop
  endfacet
  facet normal -1 0 0
    outer loop
      vertex -2 40 2.00001
      vertex -2 37.9134 2.38062
      vertex -2 39.5355 3.46448
    endloop
  endfacet
  facet normal -1 0 -0
    outer loop
      vertex -2 37.9134 2.38062
      vertex -2 40 2.00001
      vertex -2 36 2
    endloop
  endfacet
  facet normal 1 -0 0
    outer loop
      vertex 2 39.5355 3.46448
      vertex 2 40 2.00001
      vertex 2 40 4.15962
    endloop
  endfacet
  facet normal 1 -0 0
    outer loop
      vertex 2 37.9134 2.38062
      vertex 2 40 2.00001
      vertex 2 39.5355 3.46448
    endloop
  endfacet
  facet normal 1 0 0
    outer loop
      vertex 2 40 2.00001
      vertex 2 37.9134 2.38062
      vertex 2 36 2
    endloop
  endfacet
  facet normal 1 -0 0
    outer loop
      vertex 2 40 4.15962
      vertex 2 42 2
      vertex 2 42 21
    endloop
  endfacet
  facet normal 1 0 0
    outer loop
      vertex 2 40 4.15962
      vertex 2 42 21
      vertex 2 40 21
    endloop
  endfacet
  facet normal 1 0 0
    outer loop
      vertex 2 42 2
      vertex 2 40 4.15962
      vertex 2 41.7699 2
    endloop
  endfacet
  facet normal 1 -0 0
    outer loop
      vertex 2 40 2.00001
      vertex 2 41.7699 2
      vertex 2 40 4.15962
    endloop
  endfacet
  facet normal 1 0 0
    outer loop
      vertex 2 41.7699 2
      vertex 2 40 2.00001
      vertex 2 40 2
    endloop
  endfacet
  facet normal 0 -0.83147 0.55557
    outer loop
      vertex -2 39.5355 3.46448
      vertex 2 40 4.15962
      vertex -2 40 4.15962
    endloop
  endfacet
  facet normal 0 -0.83147 0.55557
    outer loop
      vertex 2 40 4.15962
      vertex -2 39.5355 3.46448
      vertex 2 39.5355 3.46448
    endloop
  endfacet
  facet normal 0 -0.55557 0.83147
    outer loop
      vertex -2 39.5355 3.46448
      vertex 2 37.9134 2.38062
      vertex 2 39.5355 3.46448
    endloop
  endfacet
  facet normal 0 -0.55557 0.83147
    outer loop
      vertex 2 37.9134 2.38062
      vertex -2 39.5355 3.46448
      vertex -2 37.9134 2.38062
    endloop
  endfacet
  facet normal 0 -0.195098 0.980784
    outer loop
      vertex -2 37.9134 2.38062
      vertex 2 36 2
      vertex 2 37.9134 2.38062
    endloop
  endfacet
  facet normal 0 -0.195098 0.980784
    outer loop
      vertex 2 36 2
      vertex -2 37.9134 2.38062
      vertex -2 36 2
    endloop
  endfacet
  facet normal 0 3.03984e-06 -1
    outer loop
      vertex -2 36 2
      vertex 2 40 2.00001
      vertex 2 36 2
    endloop
  endfacet
  facet normal 0 3.03984e-06 -1
    outer loop
      vertex 2 40 2.00001
      vertex -2 36 2
      vertex -2 40 2.00001
    endloop
  endfacet
  facet normal -1 0 0
    outer loop
      vertex -2 41.7699 2
      vertex -2 42 21
      vertex -2 42 2
    endloop
  endfacet
  facet normal -1 0 0
    outer loop
      vertex -2 40 21
      vertex -2 41.7699 2
      vertex -2 40 2
    endloop
  endfacet
  facet normal -1 0 0
    outer loop
      vertex -2 41.7699 2
      vertex -2 40 21
      vertex -2 42 21
    endloop
  endfacet
  facet normal -0 0 1
    outer loop
      vertex -2 42 21
      vertex 2 40 21
      vertex 2 42 21
    endloop
  endfacet
  facet normal 0 0 1
    outer loop
      vertex 2 40 21
      vertex -2 42 21
      vertex -2 40 21
    endloop
  endfacet
  facet normal 0 1 0
    outer loop
      vertex 2 42 21
      vertex 1 42 20.5
      vertex -2 42 21
    endloop
  endfacet
  facet normal 0 1 0
    outer loop
      vertex 2 42 21
      vertex 1 42 19
      vertex 1 42 20.5
    endloop
  endfacet
  facet normal 0 1 0
    outer loop
      vertex 1 42 19
      vertex 2 42 2
      vertex -1 42 19
    endloop
  endfacet
  facet normal 0 1 -0
    outer loop
      vertex 2 42 2
      vertex 1 42 19
      vertex 2 42 21
    endloop
  endfacet
  facet normal 0 1 -0
    outer loop
      vertex -1 42 20.5
      vertex -2 42 21
      vertex 1 42 20.5
    endloop
  endfacet
  facet normal 0 1 -0
    outer loop
      vertex -1 42 19
      vertex -2 42 21
      vertex -1 42 20.5
    endloop
  endfacet
  facet normal 0 1 0
    outer loop
      vertex -2 42 2
      vertex -1 42 19
      vertex 2 42 2
    endloop
  endfacet
  facet normal 0 1 0
    outer loop
      vertex -1 42 19
      vertex -2 42 2
      vertex -2 42 21
    endloop
  endfacet
  facet normal 0 0 -1
    outer loop
      vertex -2 41.7699 2
      vertex 2 42 2
      vertex 2 41.7699 2
    endloop
  endfacet
  facet normal -0 0 -1
    outer loop
      vertex 2 42 2
      vertex -2 41.7699 2
      vertex -2 42 2
    endloop
  endfacet
  facet normal 0 0 1
    outer loop
      vertex 37 2.5 2
      vertex 41.0822 8.73229 2
      vertex 38.3689 17.0829 2
    endloop
  endfacet
  facet normal 0 0 1
    outer loop
      vertex 41.0822 8.73229 2
      vertex 37 2.5 2
      vertex 41.7372 2.5 2
    endloop
  endfacet
  facet normal 0 0 1
    outer loop
      vertex 28.1035 31.2121 2
      vertex 37 2.5 2
      vertex 33.9787 24.687 2
    endloop
  endfacet
  facet normal 0 0 1
    outer loop
      vertex 33.9787 24.687 2
      vertex 37 2.5 2
      vertex 38.3689 17.0829 2
    endloop
  endfacet
  facet normal -0 0 1
    outer loop
      vertex 37 -2.5 2
      vertex 41.0822 -8.73229 2
      vertex 41.7372 -2.5 2
    endloop
  endfacet
  facet normal 0 0 1
    outer loop
      vertex 41.0822 -8.73229 2
      vertex 37 -2.5 2
      vertex 38.3689 -17.0829 2
    endloop
  endfacet
  facet normal 0 0 1
    outer loop
      vertex 21 36.3731 2
      vertex 37 2.5 2
      vertex 28.1035 31.2121 2
    endloop
  endfacet
  facet normal -0 0 1
    outer loop
      vertex -41.0822 8.73229 2
      vertex 37 2.5 2
      vertex -2 40 2
    endloop
  endfacet
  facet normal -0 0 1
    outer loop
      vertex -2 40 2
      vertex 37 2.5 2
      vertex 2 40 2
    endloop
  endfacet
  facet normal 0 -0 1
    outer loop
      vertex 21 -36.3731 2
      vertex 37 -2.5 2
      vertex 2 -40 2
    endloop
  endfacet
  facet normal 0 0 1
    outer loop
      vertex 37 2.5 2
      vertex 21 36.3731 2
      vertex 2 40 2
    endloop
  endfacet
  facet normal 0 0 1
    outer loop
      vertex 37 -2.5 2
      vertex 33.9787 -24.687 2
      vertex 38.3689 -17.0829 2
    endloop
  endfacet
  facet normal 0 0 1
    outer loop
      vertex 2 40 2
      vertex 21 36.3731 2
      vertex 12.9787 39.9444 2
    endloop
  endfacet
  facet normal 0 0 1
    outer loop
      vertex 37 -2.5 2
      vertex 28.1035 -31.2121 2
      vertex 33.9787 -24.687 2
    endloop
  endfacet
  facet normal -0 0 1
    outer loop
      vertex 2 40 2
      vertex 12.9787 39.9444 2
      vertex 4.39019 41.7699 2
    endloop
  endfacet
  facet normal 0 0 1
    outer loop
      vertex 37 -2.5 2
      vertex 21 -36.3731 2
      vertex 28.1035 -31.2121 2
    endloop
  endfacet
  facet normal 0 0 1
    outer loop
      vertex 2 40 2
      vertex 4.39019 41.7699 2
      vertex 2 41.7699 2
    endloop
  endfacet
  facet normal 0 0 1
    outer loop
      vertex 21 -36.3731 2
      vertex 2 -40 2
      vertex 12.9787 -39.9444 2
    endloop
  endfacet
  facet normal 0 0 1
    outer loop
      vertex 12.9787 -39.9444 2
      vertex 2 -40 2
      vertex 4.39019 -41.7699 2
    endloop
  endfacet
  facet normal 0 0 1
    outer loop
      vertex 4.39019 -41.7699 2
      vertex 2 -40 2
      vertex 2 -41.7699 2
    endloop
  endfacet
  facet normal -0 0 1
    outer loop
      vertex -4.39019 41.7699 2
      vertex -2 40 2
      vertex -2 41.7699 2
    endloop
  endfacet
  facet normal 0 0 1
    outer loop
      vertex -28.1035 31.2121 2
      vertex -2 40 2
      vertex -21 36.3731 2
    endloop
  endfacet
  facet normal 0 0 1
    outer loop
      vertex -2 40 2
      vertex -4.39019 41.7699 2
      vertex -12.9787 39.9444 2
    endloop
  endfacet
  facet normal 0 0 1
    outer loop
      vertex -2 40 2
      vertex -12.9787 39.9444 2
      vertex -21 36.3731 2
    endloop
  endfacet
  facet normal 0 0 1
    outer loop
      vertex -33.9787 24.687 2
      vertex -2 40 2
      vertex -28.1035 31.2121 2
    endloop
  endfacet
  facet normal 0 0 1
    outer loop
      vertex -2 -40 2
      vertex -4.39019 -41.7699 2
      vertex -2 -41.7699 2
    endloop
  endfacet
  facet normal -0 -0 1
    outer loop
      vertex -12.9787 -39.9444 2
      vertex -2 -40 2
      vertex -21 -36.3731 2
    endloop
  endfacet
  facet normal 0 -0 1
    outer loop
      vertex -4.39019 -41.7699 2
      vertex -2 -40 2
      vertex -12.9787 -39.9444 2
    endloop
  endfacet
  facet normal 0 0 1
    outer loop
      vertex -38.3689 17.0829 2
      vertex -2 40 2
      vertex -33.9787 24.687 2
    endloop
  endfacet
  facet normal 0 0 1
    outer loop
      vertex -2 -40 2
      vertex -28.1035 -31.2121 2
      vertex -21 -36.3731 2
    endloop
  endfacet
  facet normal 0 0 1
    outer loop
      vertex -41.0822 8.73229 2
      vertex -2 40 2
      vertex -38.3689 17.0829 2
    endloop
  endfacet
  facet normal 0 0 1
    outer loop
      vertex -2 -40 2
      vertex -33.9787 -24.687 2
      vertex -28.1035 -31.2121 2
    endloop
  endfacet
  facet normal -0 0 1
    outer loop
      vertex -42 0 2
      vertex 37 -2.5 2
      vertex -41.0822 8.73229 2
    endloop
  endfacet
  facet normal 0 0 1
    outer loop
      vertex -2 -40 2
      vertex -38.3689 -17.0829 2
      vertex -33.9787 -24.687 2
    endloop
  endfacet
  facet normal 0 0 1
    outer loop
      vertex 37 -2.5 2
      vertex -42 0 2
      vertex -2 -40 2
    endloop
  endfacet
  facet normal 0 0 1
    outer loop
      vertex -2 -40 2
      vertex -41.0822 -8.73229 2
      vertex -38.3689 -17.0829 2
    endloop
  endfacet
  facet normal 0 0 1
    outer loop
      vertex -2 -40 2
      vertex -42 0 2
      vertex -41.0822 -8.73229 2
    endloop
  endfacet
  facet normal 0 0 1
    outer loop
      vertex 37 2.5 2
      vertex -41.0822 8.73229 2
      vertex 37 -2.5 2
    endloop
  endfacet
  facet normal 0 0 1
    outer loop
      vertex 37 -2.5 2
      vertex -2 -40 2
      vertex 2 -40 2
    endloop
  endfacet
  facet normal 0 0 -1
    outer loop
      vertex -2 -42 2
      vertex 2 -41.7699 2
      vertex 2 -42 2
    endloop
  endfacet
  facet normal -0 0 -1
    outer loop
      vertex 2 -41.7699 2
      vertex -2 -42 2
      vertex -2 -41.7699 2
    endloop
  endfacet
  facet normal 0 -1 0
    outer loop
      vertex -2 40 21
      vertex -2 40 4.15962
      vertex 2 40 21
    endloop
  endfacet
  facet normal 0 -1 0
    outer loop
      vertex -2 40 2
      vertex -2 40 4.15962
      vertex -2 40 21
    endloop
  endfacet
  facet normal 0 -1 -0
    outer loop
      vertex -2 40 4.15962
      vertex -2 40 2
      vertex -2 40 2.00001
    endloop
  endfacet
  facet normal 0 -1 0
    outer loop
      vertex 2 40 2
      vertex -2 40 2.00001
      vertex -2 40 2
    endloop
  endfacet
  facet normal 0 -1 0
    outer loop
      vertex -2 40 2.00001
      vertex 2 40 2
      vertex 2 40 2.00001
    endloop
  endfacet
  facet normal 0 -1 -0
    outer loop
      vertex 2 40 21
      vertex -2 40 4.15962
      vertex 2 40 4.15962
    endloop
  endfacet
  facet normal 0 0 -1
    outer loop
      vertex -1 42 19
      vertex 1 45 19
      vertex 1 42 19
    endloop
  endfacet
  facet normal -0 0 -1
    outer loop
      vertex 1 45 19
      vertex -1 42 19
      vertex -1 45 19
    endloop
  endfacet
  facet normal 1 0 0
    outer loop
      vertex 1 42 20.5
      vertex 1 42 19
      vertex 1 45 19
    endloop
  endfacet
  facet normal -0 0.447214 0.894427
    outer loop
      vertex -1 45 19
      vertex 1 42 20.5
      vertex 1 45 19
    endloop
  endfacet
  facet normal 0 0.447214 0.894427
    outer loop
      vertex 1 42 20.5
      vertex -1 45 19
      vertex -1 42 20.5
    endloop
  endfacet
  facet normal -1 0 0
    outer loop
      vertex -1 45 19
      vertex -1 42 19
      vertex -1 42 20.5
    endloop
  endfacet
  facet normal -1 0 0
    outer loop
      vertex -2 -40 2.00001
      vertex -2 -37.9134 2.38062
      vertex -2 -36 2
    endloop
  endfacet
  facet normal -1 0 0
    outer loop
      vertex -2 -40 2.00001
      vertex -2 -39.5355 3.46448
      vertex -2 -37.9134 2.38062
    endloop
  endfacet
  facet normal -1 -0 0
    outer loop
      vertex -2 -39.5355 3.46448
      vertex -2 -40 2.00001
      vertex -2 -40 4.15962
    endloop
  endfacet
  facet normal 1 -0 0
    outer loop
      vertex 2 -42 21
      vertex 2 -40 4.15962
      vertex 2 -40 21
    endloop
  endfacet
  facet normal 1 0 0
    outer loop
      vertex 2 -40 4.15962
      vertex 2 -41.7699 2
      vertex 2 -40 2.00001
    endloop
  endfacet
  facet normal 1 0 0
    outer loop
      vertex 2 -40 2.00001
      vertex 2 -41.7699 2
      vertex 2 -40 2
    endloop
  endfacet
  facet normal 1 0 0
    outer loop
      vertex 2 -42 2
      vertex 2 -40 4.15962
      vertex 2 -42 21
    endloop
  endfacet
  facet normal 1 0 0
    outer loop
      vertex 2 -40 4.15962
      vertex 2 -42 2
      vertex 2 -41.7699 2
    endloop
  endfacet
  facet normal 1 0 0
    outer loop
      vertex 2 -37.9134 2.38062
      vertex 2 -40 2.00001
      vertex 2 -36 2
    endloop
  endfacet
  facet normal 1 0 0
    outer loop
      vertex 2 -39.5355 3.46448
      vertex 2 -40 2.00001
      vertex 2 -37.9134 2.38062
    endloop
  endfacet
  facet normal 1 0 0
    outer loop
      vertex 2 -40 2.00001
      vertex 2 -39.5355 3.46448
      vertex 2 -40 4.15962
    endloop
  endfacet
  facet normal 0 0.83147 0.55557
    outer loop
      vertex 2 -39.5355 3.46448
      vertex -2 -40 4.15962
      vertex 2 -40 4.15962
    endloop
  endfacet
  facet normal 0 0.83147 0.55557
    outer loop
      vertex -2 -40 4.15962
      vertex 2 -39.5355 3.46448
      vertex -2 -39.5355 3.46448
    endloop
  endfacet
  facet normal -0 0.55557 0.83147
    outer loop
      vertex -2 -37.9134 2.38062
      vertex 2 -39.5355 3.46448
      vertex 2 -37.9134 2.38062
    endloop
  endfacet
  facet normal 0 0.55557 0.83147
    outer loop
      vertex 2 -39.5355 3.46448
      vertex -2 -37.9134 2.38062
      vertex -2 -39.5355 3.46448
    endloop
  endfacet
  facet normal -0 0.195098 0.980784
    outer loop
      vertex -2 -36 2
      vertex 2 -37.9134 2.38062
      vertex 2 -36 2
    endloop
  endfacet
  facet normal 0 0.195098 0.980784
    outer loop
      vertex 2 -37.9134 2.38062
      vertex -2 -36 2
      vertex -2 -37.9134 2.38062
    endloop
  endfacet
  facet normal 0 -3.03984e-06 -1
    outer loop
      vertex -2 -40 2.00001
      vertex 2 -36 2
      vertex 2 -40 2.00001
    endloop
  endfacet
  facet normal -0 -3.03984e-06 -1
    outer loop
      vertex 2 -36 2
      vertex -2 -40 2.00001
      vertex -2 -36 2
    endloop
  endfacet
  facet normal -1 0 0
    outer loop
      vertex -2 -41.7699 2
      vertex -2 -40 21
      vertex -2 -40 2
    endloop
  endfacet
  facet normal -1 0 0
    outer loop
      vertex -2 -42 21
      vertex -2 -41.7699 2
      vertex -2 -42 2
    endloop
  endfacet
  facet normal -1 0 0
    outer loop
      vertex -2 -41.7699 2
      vertex -2 -42 21
      vertex -2 -40 21
    endloop
  endfacet
  facet normal -0 0 1
    outer loop
      vertex -2 -40 21
      vertex 2 -42 21
      vertex 2 -40 21
    endloop
  endfacet
  facet normal 0 0 1
    outer loop
      vertex 2 -42 21
      vertex -2 -40 21
      vertex -2 -42 21
    endloop
  endfacet
  facet normal 0 -1 0
    outer loop
      vertex -2 -42 21
      vertex -1 -42 20.5
      vertex 2 -42 21
    endloop
  endfacet
  facet normal 0 -1 0
    outer loop
      vertex -2 -42 21
      vertex -1 -42 19
      vertex -1 -42 20.5
    endloop
  endfacet
  facet normal 0 -1 -0
    outer loop
      vertex -1 -42 19
      vertex -2 -42 2
      vertex 1 -42 19
    endloop
  endfacet
  facet normal 0 -1 0
    outer loop
      vertex -2 -42 2
      vertex -1 -42 19
      vertex -2 -42 21
    endloop
  endfacet
  facet normal 0 -1 0
    outer loop
      vertex 1 -42 20.5
      vertex 2 -42 21
      vertex -1 -42 20.5
    endloop
  endfacet
  facet normal 0 -1 0
    outer loop
      vertex 1 -42 19
      vertex 2 -42 21
      vertex 1 -42 20.5
    endloop
  endfacet
  facet normal 0 -1 0
    outer loop
      vertex 2 -42 2
      vertex 1 -42 19
      vertex -2 -42 2
    endloop
  endfacet
  facet normal 0 -1 0
    outer loop
      vertex 1 -42 19
      vertex 2 -42 2
      vertex 2 -42 21
    endloop
  endfacet
  facet normal 0 1 0
    outer loop
      vertex 2 -40 2.00001
      vertex 2 -40 2
      vertex -2 -40 2.00001
    endloop
  endfacet
  facet normal 0 1 -0
    outer loop
      vertex 2 -40 4.15962
      vertex -2 -40 21
      vertex 2 -40 21
    endloop
  endfacet
  facet normal 0 1 -0
    outer loop
      vertex -2 -40 4.15962
      vertex -2 -40 21
      vertex 2 -40 4.15962
    endloop
  endfacet
  facet normal 0 1 0
    outer loop
      vertex -2 -40 2
      vertex -2 -40 4.15962
      vertex -2 -40 2.00001
    endloop
  endfacet
  facet normal 0 1 0
    outer loop
      vertex -2 -40 4.15962
      vertex -2 -40 2
      vertex -2 -40 21
    endloop
  endfacet
  facet normal 0 1 0
    outer loop
      vertex -2 -40 2
      vertex -2 -40 2.00001
      vertex 2 -40 2
    endloop
  endfacet
  facet normal 0 0 -1
    outer loop
      vertex -1 -45 19
      vertex 1 -42 19
      vertex 1 -45 19
    endloop
  endfacet
  facet normal -0 0 -1
    outer loop
      vertex 1 -42 19
      vertex -1 -45 19
      vertex -1 -42 19
    endloop
  endfacet
  facet normal 1 0 -0
    outer loop
      vertex 1 -42 19
      vertex 1 -42 20.5
      vertex 1 -45 19
    endloop
  endfacet
  facet normal 0 -0.447214 0.894427
    outer loop
      vertex -1 -42 20.5
      vertex 1 -45 19
      vertex 1 -42 20.5
    endloop
  endfacet
  facet normal 0 -0.447214 0.894427
    outer loop
      vertex 1 -45 19
      vertex -1 -42 20.5
      vertex -1 -45 19
    endloop
  endfacet
  facet normal -1 0 -0
    outer loop
      vertex -1 -42 20.5
      vertex -1 -42 19
      vertex -1 -45 19
    endloop
  endfacet
  facet normal 0.866025 0.5 0
    outer loop
      vertex 38.3689 17.0829 2
      vertex 33.9787 24.687 0
      vertex 33.9787 24.687 2
    endloop
  endfacet
  facet normal 0.866025 0.5 0
    outer loop
      vertex 33.9787 24.687 0
      vertex 38.3689 17.0829 2
      vertex 38.3689 17.0829 0
    endloop
  endfacet
  facet normal 0 1 -0
    outer loop
      vertex 4.39019 41.7699 0
      vertex 2 41.7699 2
      vertex 4.39019 41.7699 2
    endloop
  endfacet
  facet normal 0 1 0
    outer loop
      vertex 2 41.7699 2
      vertex 4.39019 41.7699 0
      vertex -2 41.7699 2
    endloop
  endfacet
  facet normal 0 1 0
    outer loop
      vertex -4.39019 41.7699 0
      vertex -2 41.7699 2
      vertex 4.39019 41.7699 0
    endloop
  endfacet
  facet normal 0 1 0
    outer loop
      vertex -2 41.7699 2
      vertex -4.39019 41.7699 0
      vertex -4.39019 41.7699 2
    endloop
  endfacet
  facet normal -0.951056 0.309017 0
    outer loop
      vertex -41.0822 8.73229 0
      vertex -38.3689 17.0829 2
      vertex -38.3689 17.0829 0
    endloop
  endfacet
  facet normal -0.951056 0.309017 0
    outer loop
      vertex -38.3689 17.0829 2
      vertex -41.0822 8.73229 0
      vertex -41.0822 8.73229 2
    endloop
  endfacet
  facet normal 0.743145 0.669131 0
    outer loop
      vertex 33.9787 24.687 2
      vertex 28.1035 31.2121 0
      vertex 28.1035 31.2121 2
    endloop
  endfacet
  facet normal 0.743145 0.669131 0
    outer loop
      vertex 28.1035 31.2121 0
      vertex 33.9787 24.687 2
      vertex 33.9787 24.687 0
    endloop
  endfacet
  facet normal 0.207912 0.978148 -0
    outer loop
      vertex 12.9787 39.9444 0
      vertex 4.39019 41.7699 2
      vertex 12.9787 39.9444 2
    endloop
  endfacet
  facet normal 0.207912 0.978148 0
    outer loop
      vertex 4.39019 41.7699 2
      vertex 12.9787 39.9444 0
      vertex 4.39019 41.7699 0
    endloop
  endfacet
  facet normal -0.406737 0.913545 0
    outer loop
      vertex -12.9787 39.9444 0
      vertex -21 36.3731 2
      vertex -12.9787 39.9444 2
    endloop
  endfacet
  facet normal -0.406737 0.913545 0
    outer loop
      vertex -21 36.3731 2
      vertex -12.9787 39.9444 0
      vertex -21 36.3731 0
    endloop
  endfacet
  facet normal -0.866025 0.5 0
    outer loop
      vertex -38.3689 17.0829 0
      vertex -33.9787 24.687 2
      vertex -33.9787 24.687 0
    endloop
  endfacet
  facet normal -0.866025 0.5 0
    outer loop
      vertex -33.9787 24.687 2
      vertex -38.3689 17.0829 0
      vertex -38.3689 17.0829 2
    endloop
  endfacet
  facet normal -0.587785 0.809017 0
    outer loop
      vertex -21 36.3731 0
      vertex -28.1035 31.2121 2
      vertex -21 36.3731 2
    endloop
  endfacet
  facet normal -0.587785 0.809017 0
    outer loop
      vertex -28.1035 31.2121 2
      vertex -21 36.3731 0
      vertex -28.1035 31.2121 0
    endloop
  endfacet
  facet normal 0.994522 -0.104529 0
    outer loop
      vertex 41.0822 -8.73229 2
      vertex 41.7372 -2.5 0
      vertex 41.7372 -2.5 2
    endloop
  endfacet
  facet normal 0.994522 -0.104529 0
    outer loop
      vertex 41.7372 -2.5 0
      vertex 41.0822 -8.73229 2
      vertex 41.0822 -8.73229 0
    endloop
  endfacet
  facet normal 0.207912 -0.978148 0
    outer loop
      vertex 4.39019 -41.7699 0
      vertex 12.9787 -39.9444 2
      vertex 4.39019 -41.7699 2
    endloop
  endfacet
  facet normal 0.207912 -0.978148 0
    outer loop
      vertex 12.9787 -39.9444 2
      vertex 4.39019 -41.7699 0
      vertex 12.9787 -39.9444 0
    endloop
  endfacet
  facet normal 0.587785 0.809017 -0
    outer loop
      vertex 28.1035 31.2121 0
      vertex 21 36.3731 2
      vertex 28.1035 31.2121 2
    endloop
  endfacet
  facet normal 0.587785 0.809017 0
    outer loop
      vertex 21 36.3731 2
      vertex 28.1035 31.2121 0
      vertex 21 36.3731 0
    endloop
  endfacet
  facet normal 0.406737 0.913545 -0
    outer loop
      vertex 21 36.3731 0
      vertex 12.9787 39.9444 2
      vertex 21 36.3731 2
    endloop
  endfacet
  facet normal 0.406737 0.913545 0
    outer loop
      vertex 12.9787 39.9444 2
      vertex 21 36.3731 0
      vertex 12.9787 39.9444 0
    endloop
  endfacet
  facet normal -0.994522 0.104528 0
    outer loop
      vertex -42 0 0
      vertex -41.0822 8.73229 2
      vertex -41.0822 8.73229 0
    endloop
  endfacet
  facet normal -0.994522 0.104528 0
    outer loop
      vertex -41.0822 8.73229 2
      vertex -42 0 0
      vertex -42 0 2
    endloop
  endfacet
  facet normal -0.743145 0.669131 0
    outer loop
      vertex -33.9787 24.687 0
      vertex -28.1035 31.2121 2
      vertex -28.1035 31.2121 0
    endloop
  endfacet
  facet normal -0.743145 0.669131 0
    outer loop
      vertex -28.1035 31.2121 2
      vertex -33.9787 24.687 0
      vertex -33.9787 24.687 2
    endloop
  endfacet
  facet normal -0.207912 0.978148 0
    outer loop
      vertex -4.39019 41.7699 0
      vertex -12.9787 39.9444 2
      vertex -4.39019 41.7699 2
    endloop
  endfacet
  facet normal -0.207912 0.978148 0
    outer loop
      vertex -12.9787 39.9444 2
      vertex -4.39019 41.7699 0
      vertex -12.9787 39.9444 0
    endloop
  endfacet
  facet normal 0.994522 0.104529 0
    outer loop
      vertex 41.7372 2.5 2
      vertex 41.0822 8.73229 0
      vertex 41.0822 8.73229 2
    endloop
  endfacet
  facet normal 0.994522 0.104529 0
    outer loop
      vertex 41.0822 8.73229 0
      vertex 41.7372 2.5 2
      vertex 41.7372 2.5 0
    endloop
  endfacet
  facet normal 0.951056 -0.309017 0
    outer loop
      vertex 38.3689 -17.0829 2
      vertex 41.0822 -8.73229 0
      vertex 41.0822 -8.73229 2
    endloop
  endfacet
  facet normal 0.951056 -0.309017 0
    outer loop
      vertex 41.0822 -8.73229 0
      vertex 38.3689 -17.0829 2
      vertex 38.3689 -17.0829 0
    endloop
  endfacet
  facet normal -0.587785 -0.809017 0
    outer loop
      vertex -28.1035 -31.2121 0
      vertex -21 -36.3731 2
      vertex -28.1035 -31.2121 2
    endloop
  endfacet
  facet normal -0.587785 -0.809017 -0
    outer loop
      vertex -21 -36.3731 2
      vertex -28.1035 -31.2121 0
      vertex -21 -36.3731 0
    endloop
  endfacet
  facet normal -0.866025 -0.5 0
    outer loop
      vertex -33.9787 -24.687 0
      vertex -38.3689 -17.0829 2
      vertex -38.3689 -17.0829 0
    endloop
  endfacet
  facet normal -0.866025 -0.5 0
    outer loop
      vertex -38.3689 -17.0829 2
      vertex -33.9787 -24.687 0
      vertex -33.9787 -24.687 2
    endloop
  endfacet
  facet normal 0.587785 -0.809017 0
    outer loop
      vertex 21 -36.3731 0
      vertex 28.1035 -31.2121 2
      vertex 21 -36.3731 2
    endloop
  endfacet
  facet normal 0.587785 -0.809017 0
    outer loop
      vertex 28.1035 -31.2121 2
      vertex 21 -36.3731 0
      vertex 28.1035 -31.2121 0
    endloop
  endfacet
  facet normal 0.951056 0.309017 0
    outer loop
      vertex 41.0822 8.73229 2
      vertex 38.3689 17.0829 0
      vertex 38.3689 17.0829 2
    endloop
  endfacet
  facet normal 0.951056 0.309017 0
    outer loop
      vertex 38.3689 17.0829 0
      vertex 41.0822 8.73229 2
      vertex 41.0822 8.73229 0
    endloop
  endfacet
  facet normal 0.866025 -0.5 0
    outer loop
      vertex 33.9787 -24.687 2
      vertex 38.3689 -17.0829 0
      vertex 38.3689 -17.0829 2
    endloop
  endfacet
  facet normal 0.866025 -0.5 0
    outer loop
      vertex 38.3689 -17.0829 0
      vertex 33.9787 -24.687 2
      vertex 33.9787 -24.687 0
    endloop
  endfacet
  facet normal 0 -1 0
    outer loop
      vertex -4.39019 -41.7699 0
      vertex -2 -41.7699 2
      vertex -4.39019 -41.7699 2
    endloop
  endfacet
  facet normal 0 -1 -0
    outer loop
      vertex -2 -41.7699 2
      vertex -4.39019 -41.7699 0
      vertex 2 -41.7699 2
    endloop
  endfacet
  facet normal 0 -1 0
    outer loop
      vertex 4.39019 -41.7699 0
      vertex 2 -41.7699 2
      vertex -4.39019 -41.7699 0
    endloop
  endfacet
  facet normal 0 -1 0
    outer loop
      vertex 2 -41.7699 2
      vertex 4.39019 -41.7699 0
      vertex 4.39019 -41.7699 2
    endloop
  endfacet
  facet normal -0.994522 -0.104528 0
    outer loop
      vertex -41.0822 -8.73229 0
      vertex -42 0 2
      vertex -42 0 0
    endloop
  endfacet
  facet normal -0.994522 -0.104528 0
    outer loop
      vertex -42 0 2
      vertex -41.0822 -8.73229 0
      vertex -41.0822 -8.73229 2
    endloop
  endfacet
  facet normal 0 0 -1
    outer loop
      vertex 37 -2.5 0
      vertex 41.0822 -8.73229 0
      vertex 38.3689 -17.0829 0
    endloop
  endfacet
  facet normal 0 0 -1
    outer loop
      vertex 41.0822 -8.73229 0
      vertex 37 -2.5 0
      vertex 41.7372 -2.5 0
    endloop
  endfacet
  facet normal 0 0 -1
    outer loop
      vertex 28.1035 -31.2121 0
      vertex 37 -2.5 0
      vertex 33.9787 -24.687 0
    endloop
  endfacet
  facet normal 0 0 -1
    outer loop
      vertex 33.9787 -24.687 0
      vertex 37 -2.5 0
      vertex 38.3689 -17.0829 0
    endloop
  endfacet
  facet normal 0 0 -1
    outer loop
      vertex 37 2.5 0
      vertex 41.0822 8.73229 0
      vertex 41.7372 2.5 0
    endloop
  endfacet
  facet normal -0 0 -1
    outer loop
      vertex 41.0822 8.73229 0
      vertex 37 2.5 0
      vertex 38.3689 17.0829 0
    endloop
  endfacet
  facet normal 0 0 -1
    outer loop
      vertex 21 -36.3731 0
      vertex 37 -2.5 0
      vertex 28.1035 -31.2121 0
    endloop
  endfacet
  facet normal 0 0 -1
    outer loop
      vertex 37 2.5 0
      vertex 33.9787 24.687 0
      vertex 38.3689 17.0829 0
    endloop
  endfacet
  facet normal 0 0 -1
    outer loop
      vertex 12.9787 -39.9444 0
      vertex 37 -2.5 0
      vertex 21 -36.3731 0
    endloop
  endfacet
  facet normal 0 0 -1
    outer loop
      vertex 37 2.5 0
      vertex 28.1035 31.2121 0
      vertex 33.9787 24.687 0
    endloop
  endfacet
  facet normal 0 0 -1
    outer loop
      vertex 4.39019 -41.7699 0
      vertex 37 -2.5 0
      vertex 12.9787 -39.9444 0
    endloop
  endfacet
  facet normal 0 0 -1
    outer loop
      vertex 37 2.5 0
      vertex 21 36.3731 0
      vertex 28.1035 31.2121 0
    endloop
  endfacet
  facet normal 0 0 -1
    outer loop
      vertex -4.39019 -41.7699 0
      vertex 37 -2.5 0
      vertex 4.39019 -41.7699 0
    endloop
  endfacet
  facet normal 0 0 -1
    outer loop
      vertex 37 2.5 0
      vertex 12.9787 39.9444 0
      vertex 21 36.3731 0
    endloop
  endfacet
  facet normal 0 0 -1
    outer loop
      vertex -12.9787 -39.9444 0
      vertex 37 -2.5 0
      vertex -4.39019 -41.7699 0
    endloop
  endfacet
  facet normal 0 0 -1
    outer loop
      vertex 37 2.5 0
      vertex 4.39019 41.7699 0
      vertex 12.9787 39.9444 0
    endloop
  endfacet
  facet normal 0 0 -1
    outer loop
      vertex -21 -36.3731 0
      vertex 37 -2.5 0
      vertex -12.9787 -39.9444 0
    endloop
  endfacet
  facet normal 0 0 -1
    outer loop
      vertex 37 2.5 0
      vertex -4.39019 41.7699 0
      vertex 4.39019 41.7699 0
    endloop
  endfacet
  facet normal 0 0 -1
    outer loop
      vertex -28.1035 -31.2121 0
      vertex 37 -2.5 0
      vertex -21 -36.3731 0
    endloop
  endfacet
  facet normal 0 0 -1
    outer loop
      vertex 37 2.5 0
      vertex -12.9787 39.9444 0
      vertex -4.39019 41.7699 0
    endloop
  endfacet
  facet normal 0 0 -1
    outer loop
      vertex -33.9787 -24.687 0
      vertex 37 -2.5 0
      vertex -28.1035 -31.2121 0
    endloop
  endfacet
  facet normal 0 0 -1
    outer loop
      vertex 37 2.5 0
      vertex -21 36.3731 0
      vertex -12.9787 39.9444 0
    endloop
  endfacet
  facet normal 0 0 -1
    outer loop
      vertex -38.3689 -17.0829 0
      vertex 37 -2.5 0
      vertex -33.9787 -24.687 0
    endloop
  endfacet
  facet normal 0 0 -1
    outer loop
      vertex 37 2.5 0
      vertex -28.1035 31.2121 0
      vertex -21 36.3731 0
    endloop
  endfacet
  facet normal 0 0 -1
    outer loop
      vertex -41.0822 -8.73229 0
      vertex 37 -2.5 0
      vertex -38.3689 -17.0829 0
    endloop
  endfacet
  facet normal 0 0 -1
    outer loop
      vertex 37 2.5 0
      vertex -33.9787 24.687 0
      vertex -28.1035 31.2121 0
    endloop
  endfacet
  facet normal -0 0 -1
    outer loop
      vertex 37 -2.5 0
      vertex -41.0822 -8.73229 0
      vertex 37 2.5 0
    endloop
  endfacet
  facet normal 0 0 -1
    outer loop
      vertex 37 2.5 0
      vertex -38.3689 17.0829 0
      vertex -33.9787 24.687 0
    endloop
  endfacet
  facet normal 0 0 -1
    outer loop
      vertex -42 0 0
      vertex 37 2.5 0
      vertex -41.0822 -8.73229 0
    endloop
  endfacet
  facet normal 0 0 -1
    outer loop
      vertex 37 2.5 0
      vertex -41.0822 8.73229 0
      vertex -38.3689 17.0829 0
    endloop
  endfacet
  facet normal -0 0 -1
    outer loop
      vertex 37 2.5 0
      vertex -42 0 0
      vertex -41.0822 8.73229 0
    endloop
  endfacet
  facet normal -0.743145 -0.669131 0
    outer loop
      vertex -28.1035 -31.2121 0
      vertex -33.9787 -24.687 2
      vertex -33.9787 -24.687 0
    endloop
  endfacet
  facet normal -0.743145 -0.669131 0
    outer loop
      vertex -33.9787 -24.687 2
      vertex -28.1035 -31.2121 0
      vertex -28.1035 -31.2121 2
    endloop
  endfacet
  facet normal 0.406737 -0.913545 0
    outer loop
      vertex 12.9787 -39.9444 0
      vertex 21 -36.3731 2
      vertex 12.9787 -39.9444 2
    endloop
  endfacet
  facet normal 0.406737 -0.913545 0
    outer loop
      vertex 21 -36.3731 2
      vertex 12.9787 -39.9444 0
      vertex 21 -36.3731 0
    endloop
  endfacet
  facet normal -0.406737 -0.913545 0
    outer loop
      vertex -21 -36.3731 0
      vertex -12.9787 -39.9444 2
      vertex -21 -36.3731 2
    endloop
  endfacet
  facet normal -0.406737 -0.913545 -0
    outer loop
      vertex -12.9787 -39.9444 2
      vertex -21 -36.3731 0
      vertex -12.9787 -39.9444 0
    endloop
  endfacet
  facet normal -0.951056 -0.309017 0
    outer loop
      vertex -38.3689 -17.0829 0
      vertex -41.0822 -8.73229 2
      vertex -41.0822 -8.73229 0
    endloop
  endfacet
  facet normal -0.951056 -0.309017 0
    outer loop
      vertex -41.0822 -8.73229 2
      vertex -38.3689 -17.0829 0
      vertex -38.3689 -17.0829 2
    endloop
  endfacet
  facet normal 0.743145 -0.669131 0
    outer loop
      vertex 28.1035 -31.2121 2
      vertex 33.9787 -24.687 0
      vertex 33.9787 -24.687 2
    endloop
  endfacet
  facet normal 0.743145 -0.669131 0
    outer loop
      vertex 33.9787 -24.687 0
      vertex 28.1035 -31.2121 2
      vertex 28.1035 -31.2121 0
    endloop
  endfacet
  facet normal -0.207912 -0.978148 0
    outer loop
      vertex -12.9787 -39.9444 0
      vertex -4.39019 -41.7699 2
      vertex -12.9787 -39.9444 2
    endloop
  endfacet
  facet normal -0.207912 -0.978148 -0
    outer loop
      vertex -4.39019 -41.7699 2
      vertex -12.9787 -39.9444 0
      vertex -4.39019 -41.7699 0
    endloop
  endfacet
  facet normal 1 -0 0
    outer loop
      vertex 37 -2.5 2
      vertex 37 2.5 0
      vertex 37 2.5 2
    endloop
  endfacet
  facet normal 1 0 0
    outer loop
      vertex 37 2.5 0
      vertex 37 -2.5 2
      vertex 37 -2.5 0
    endloop
  endfacet
  facet normal 0 1 -0
    outer loop
      vertex 41.7372 -2.5 0
      vertex 37 -2.5 2
      vertex 41.7372 -2.5 2
    endloop
  endfacet
  facet normal 0 1 0
    outer loop
      vertex 37 -2.5 2
      vertex 41.7372 -2.5 0
      vertex 37 -2.5 0
    endloop
  endfacet
  facet normal 0 -1 0
    outer loop
      vertex 37 2.5 0
      vertex 41.7372 2.5 2
      vertex 37 2.5 2
    endloop
  endfacet
  facet normal 0 -1 -0
    outer loop
      vertex 41.7372 2.5 2
      vertex 37 2.5 0
      vertex 41.7372 2.5 0
    endloop
  endfacet
endsolid OpenSCAD_Model
