solid OpenSCAD_Model
  facet normal -1 0 0
    outer loop
      vertex -2 38.5 2.00001
      vertex -2 37.5355 3.46448
      vertex -2 38.5 4.90792
    endloop
  endfacet
  facet normal -1 0 0
    outer loop
      vertex -2 38.5 2.00001
      vertex -2 35.9134 2.38062
      vertex -2 37.5355 3.46448
    endloop
  endfacet
  facet normal -1 0 -0
    outer loop
      vertex -2 35.9134 2.38062
      vertex -2 38.5 2.00001
      vertex -2 34 2
    endloop
  endfacet
  facet normal 1 0 0
    outer loop
      vertex 2 39.5 2
      vertex 2 37.5355 3.46448
      vertex 2 38.5 2.00001
    endloop
  endfacet
  facet normal 1 -0 0
    outer loop
      vertex 2 35.9134 2.38062
      vertex 2 38.5 2.00001
      vertex 2 37.5355 3.46448
    endloop
  endfacet
  facet normal 1 0 0
    outer loop
      vertex 2 38.5 2.00001
      vertex 2 35.9134 2.38062
      vertex 2 34 2
    endloop
  endfacet
  facet normal 1 0 0
    outer loop
      vertex 2 38.5 4.90792
      vertex 2 39.5 22
      vertex 2 38.5 22
    endloop
  endfacet
  facet normal 1 0 0
    outer loop
      vertex 2 39.5 22
      vertex 2 38.5 4.90792
      vertex 2 39.5 2
    endloop
  endfacet
  facet normal 1 -0 0
    outer loop
      vertex 2 37.5355 3.46448
      vertex 2 39.5 2
      vertex 2 38.5 4.90792
    endloop
  endfacet
  facet normal 1 0 0
    outer loop
      vertex 2 39.5 2
      vertex 2 38.5 2.00001
      vertex 2 38.5 2
    endloop
  endfacet
  facet normal 0 -0.83147 0.55557
    outer loop
      vertex -2 37.5355 3.46448
      vertex 2 38.5 4.90792
      vertex -2 38.5 4.90792
    endloop
  endfacet
  facet normal 0 -0.83147 0.55557
    outer loop
      vertex 2 38.5 4.90792
      vertex -2 37.5355 3.46448
      vertex 2 37.5355 3.46448
    endloop
  endfacet
  facet normal 0 -0.55557 0.83147
    outer loop
      vertex -2 37.5355 3.46448
      vertex 2 35.9134 2.38062
      vertex 2 37.5355 3.46448
    endloop
  endfacet
  facet normal 0 -0.55557 0.83147
    outer loop
      vertex 2 35.9134 2.38062
      vertex -2 37.5355 3.46448
      vertex -2 35.9134 2.38062
    endloop
  endfacet
  facet normal 0 -0.195098 0.980784
    outer loop
      vertex -2 35.9134 2.38062
      vertex 2 34 2
      vertex 2 35.9134 2.38062
    endloop
  endfacet
  facet normal 0 -0.195098 0.980784
    outer loop
      vertex 2 34 2
      vertex -2 35.9134 2.38062
      vertex -2 34 2
    endloop
  endfacet
  facet normal 0 3.07295e-06 -1
    outer loop
      vertex -2 34 2
      vertex 2 38.5 2.00001
      vertex 2 34 2
    endloop
  endfacet
  facet normal 0 3.07295e-06 -1
    outer loop
      vertex 2 38.5 2.00001
      vertex -2 34 2
      vertex -2 38.5 2.00001
    endloop
  endfacet
  facet normal -1 0 0
    outer loop
      vertex -2 38.5 2
      vertex -2 39.5 22
      vertex -2 39.5 2
    endloop
  endfacet
  facet normal -1 -0 0
    outer loop
      vertex -2 39.5 22
      vertex -2 38.5 2
      vertex -2 38.5 22
    endloop
  endfacet
  facet normal -0 0 1
    outer loop
      vertex -2 39.5 22
      vertex 2 38.5 22
      vertex 2 39.5 22
    endloop
  endfacet
  facet normal 0 0 1
    outer loop
      vertex 2 38.5 22
      vertex -2 39.5 22
      vertex -2 38.5 22
    endloop
  endfacet
  facet normal 0 1 0
    outer loop
      vertex 2 39.5 22
      vertex 1 39.5 21.5
      vertex -2 39.5 22
    endloop
  endfacet
  facet normal 0 1 0
    outer loop
      vertex 2 39.5 22
      vertex 1 39.5 20
      vertex 1 39.5 21.5
    endloop
  endfacet
  facet normal 0 1 0
    outer loop
      vertex 1 39.5 20
      vertex 2 39.5 2
      vertex -1 39.5 20
    endloop
  endfacet
  facet normal 0 1 -0
    outer loop
      vertex 2 39.5 2
      vertex 1 39.5 20
      vertex 2 39.5 22
    endloop
  endfacet
  facet normal 0 1 -0
    outer loop
      vertex -1 39.5 21.5
      vertex -2 39.5 22
      vertex 1 39.5 21.5
    endloop
  endfacet
  facet normal 0 1 -0
    outer loop
      vertex -1 39.5 20
      vertex -2 39.5 22
      vertex -1 39.5 21.5
    endloop
  endfacet
  facet normal 0 1 0
    outer loop
      vertex -2 39.5 2
      vertex -1 39.5 20
      vertex 2 39.5 2
    endloop
  endfacet
  facet normal 0 1 0
    outer loop
      vertex -1 39.5 20
      vertex -2 39.5 2
      vertex -2 39.5 22
    endloop
  endfacet
  facet normal 0 0 1
    outer loop
      vertex 35 2.5 2
      vertex 39.1259 8.31647 2
      vertex 36.5418 16.2695 2
    endloop
  endfacet
  facet normal 0 0 1
    outer loop
      vertex 39.1259 8.31647 2
      vertex 35 2.5 2
      vertex 39.7372 2.5 2
    endloop
  endfacet
  facet normal 0 0 1
    outer loop
      vertex 26.7652 29.7258 2
      vertex 35 2.5 2
      vertex 32.3607 23.5114 2
    endloop
  endfacet
  facet normal 0 0 1
    outer loop
      vertex 32.3607 23.5114 2
      vertex 35 2.5 2
      vertex 36.5418 16.2695 2
    endloop
  endfacet
  facet normal -0 0 1
    outer loop
      vertex 35 -2.5 2
      vertex 39.1259 -8.31647 2
      vertex 39.7372 -2.5 2
    endloop
  endfacet
  facet normal 0 0 1
    outer loop
      vertex 39.1259 -8.31647 2
      vertex 35 -2.5 2
      vertex 36.5418 -16.2695 2
    endloop
  endfacet
  facet normal 0 0 1
    outer loop
      vertex 35 -2.5 2
      vertex 32.3607 -23.5114 2
      vertex 36.5418 -16.2695 2
    endloop
  endfacet
  facet normal 0 0 1
    outer loop
      vertex 20 34.641 2
      vertex 35 2.5 2
      vertex 26.7652 29.7258 2
    endloop
  endfacet
  facet normal 0 0 1
    outer loop
      vertex 2 38.5 2
      vertex 35 2.5 2
      vertex 20 34.641 2
    endloop
  endfacet
  facet normal -0 0 1
    outer loop
      vertex -39.1259 8.31647 2
      vertex 35 2.5 2
      vertex -2 38.5 2
    endloop
  endfacet
  facet normal -0 0 1
    outer loop
      vertex -2 38.5 2
      vertex 35 2.5 2
      vertex 2 38.5 2
    endloop
  endfacet
  facet normal 0 -0 1
    outer loop
      vertex 20 -34.641 2
      vertex 35 -2.5 2
      vertex 2 -38.5 2
    endloop
  endfacet
  facet normal 0 0 1
    outer loop
      vertex 2 38.5 2
      vertex 20 34.641 2
      vertex 12.3607 38.0423 2
    endloop
  endfacet
  facet normal 0 0 1
    outer loop
      vertex 35 -2.5 2
      vertex 26.7652 -29.7258 2
      vertex 32.3607 -23.5114 2
    endloop
  endfacet
  facet normal -0 0 1
    outer loop
      vertex 2 38.5 2
      vertex 12.3607 38.0423 2
      vertex 4.18114 39.7809 2
    endloop
  endfacet
  facet normal 0 0 1
    outer loop
      vertex 35 -2.5 2
      vertex 20 -34.641 2
      vertex 26.7652 -29.7258 2
    endloop
  endfacet
  facet normal 0 0 1
    outer loop
      vertex 2 38.5 2
      vertex 4.18114 39.7809 2
      vertex 2 39.5 2
    endloop
  endfacet
  facet normal 0 0 1
    outer loop
      vertex 4.18114 39.7809 2
      vertex -2 39.5 2
      vertex 2 39.5 2
    endloop
  endfacet
  facet normal 0 0 1
    outer loop
      vertex -4.18114 39.7809 2
      vertex -2 38.5 2
      vertex -2 39.5 2
    endloop
  endfacet
  facet normal 0 0 1
    outer loop
      vertex -36.5418 16.2695 2
      vertex -2 38.5 2
      vertex -32.3607 23.5114 2
    endloop
  endfacet
  facet normal 0 0 1
    outer loop
      vertex -2 38.5 2
      vertex -4.18114 39.7809 2
      vertex -12.3607 38.0423 2
    endloop
  endfacet
  facet normal -0 0 1
    outer loop
      vertex -4.18114 39.7809 2
      vertex -2 39.5 2
      vertex 4.18114 39.7809 2
    endloop
  endfacet
  facet normal 0 0 1
    outer loop
      vertex 35 2.5 2
      vertex -39.1259 8.31647 2
      vertex 35 -2.5 2
    endloop
  endfacet
  facet normal 0 0 1
    outer loop
      vertex 35 -2.5 2
      vertex -2 -38.5 2
      vertex 2 -38.5 2
    endloop
  endfacet
  facet normal 0 0 1
    outer loop
      vertex 20 -34.641 2
      vertex 2 -38.5 2
      vertex 12.3607 -38.0423 2
    endloop
  endfacet
  facet normal 0 0 1
    outer loop
      vertex 12.3607 -38.0423 2
      vertex 2 -38.5 2
      vertex 4.18114 -39.7809 2
    endloop
  endfacet
  facet normal -0 0 1
    outer loop
      vertex 2 -39.5 2
      vertex 4.18114 -39.7809 2
      vertex 2 -38.5 2
    endloop
  endfacet
  facet normal -0 0 1
    outer loop
      vertex -2 -39.5 2
      vertex 4.18114 -39.7809 2
      vertex 2 -39.5 2
    endloop
  endfacet
  facet normal 0 0 1
    outer loop
      vertex -2 -39.5 2
      vertex -4.18114 -39.7809 2
      vertex 4.18114 -39.7809 2
    endloop
  endfacet
  facet normal 0 0 1
    outer loop
      vertex -2 38.5 2
      vertex -12.3607 38.0423 2
      vertex -20 34.641 2
    endloop
  endfacet
  facet normal 0 0 1
    outer loop
      vertex -2 38.5 2
      vertex -20 34.641 2
      vertex -26.7652 29.7258 2
    endloop
  endfacet
  facet normal 0 0 1
    outer loop
      vertex -2 -38.5 2
      vertex -4.18114 -39.7809 2
      vertex -2 -39.5 2
    endloop
  endfacet
  facet normal 0 0 1
    outer loop
      vertex -2 38.5 2
      vertex -26.7652 29.7258 2
      vertex -32.3607 23.5114 2
    endloop
  endfacet
  facet normal 0 -0 1
    outer loop
      vertex -4.18114 -39.7809 2
      vertex -2 -38.5 2
      vertex -12.3607 -38.0423 2
    endloop
  endfacet
  facet normal 0 0 1
    outer loop
      vertex -39.1259 8.31647 2
      vertex -2 38.5 2
      vertex -36.5418 16.2695 2
    endloop
  endfacet
  facet normal -0 -0 1
    outer loop
      vertex -12.3607 -38.0423 2
      vertex -2 -38.5 2
      vertex -20 -34.641 2
    endloop
  endfacet
  facet normal -0 -0 1
    outer loop
      vertex -26.7652 -29.7258 2
      vertex -2 -38.5 2
      vertex -32.3607 -23.5114 2
    endloop
  endfacet
  facet normal -0 -0 1
    outer loop
      vertex -20 -34.641 2
      vertex -2 -38.5 2
      vertex -26.7652 -29.7258 2
    endloop
  endfacet
  facet normal -0 0 1
    outer loop
      vertex -40 0 2
      vertex 35 -2.5 2
      vertex -39.1259 8.31647 2
    endloop
  endfacet
  facet normal 0 0 1
    outer loop
      vertex -2 -38.5 2
      vertex -36.5418 -16.2695 2
      vertex -32.3607 -23.5114 2
    endloop
  endfacet
  facet normal 0 0 1
    outer loop
      vertex 35 -2.5 2
      vertex -39.1259 -8.31647 2
      vertex -2 -38.5 2
    endloop
  endfacet
  facet normal 0 0 1
    outer loop
      vertex -2 -38.5 2
      vertex -39.1259 -8.31647 2
      vertex -36.5418 -16.2695 2
    endloop
  endfacet
  facet normal 0 0 1
    outer loop
      vertex 35 -2.5 2
      vertex -40 0 2
      vertex -39.1259 -8.31647 2
    endloop
  endfacet
  facet normal 0 -1 0
    outer loop
      vertex -2 38.5 22
      vertex -2 38.5 4.90792
      vertex 2 38.5 22
    endloop
  endfacet
  facet normal 0 -1 0
    outer loop
      vertex -2 38.5 2
      vertex -2 38.5 4.90792
      vertex -2 38.5 22
    endloop
  endfacet
  facet normal 0 -1 -0
    outer loop
      vertex -2 38.5 4.90792
      vertex -2 38.5 2
      vertex -2 38.5 2.00001
    endloop
  endfacet
  facet normal 0 -1 0
    outer loop
      vertex 2 38.5 2
      vertex -2 38.5 2.00001
      vertex -2 38.5 2
    endloop
  endfacet
  facet normal 0 -1 0
    outer loop
      vertex -2 38.5 2.00001
      vertex 2 38.5 2
      vertex 2 38.5 2.00001
    endloop
  endfacet
  facet normal 0 -1 -0
    outer loop
      vertex 2 38.5 22
      vertex -2 38.5 4.90792
      vertex 2 38.5 4.90792
    endloop
  endfacet
  facet normal 0 0 -1
    outer loop
      vertex -1 39.5 20
      vertex 1 41 20
      vertex 1 39.5 20
    endloop
  endfacet
  facet normal -0 0 -1
    outer loop
      vertex 1 41 20
      vertex -1 39.5 20
      vertex -1 41 20
    endloop
  endfacet
  facet normal 1 0 0
    outer loop
      vertex 1 39.5 21.5
      vertex 1 39.5 20
      vertex 1 41 20
    endloop
  endfacet
  facet normal 0 0.707107 0.707107
    outer loop
      vertex 1 41 20
      vertex -1 39.5 21.5
      vertex 1 39.5 21.5
    endloop
  endfacet
  facet normal 0 0.707107 0.707107
    outer loop
      vertex -1 39.5 21.5
      vertex 1 41 20
      vertex -1 41 20
    endloop
  endfacet
  facet normal -1 0 0
    outer loop
      vertex -1 41 20
      vertex -1 39.5 20
      vertex -1 39.5 21.5
    endloop
  endfacet
  facet normal -1 0 0
    outer loop
      vertex -2 -38.5 2.00001
      vertex -2 -35.9134 2.38062
      vertex -2 -34 2
    endloop
  endfacet
  facet normal -1 0 0
    outer loop
      vertex -2 -38.5 2.00001
      vertex -2 -37.5355 3.46448
      vertex -2 -35.9134 2.38062
    endloop
  endfacet
  facet normal -1 -0 0
    outer loop
      vertex -2 -37.5355 3.46448
      vertex -2 -38.5 2.00001
      vertex -2 -38.5 4.90792
    endloop
  endfacet
  facet normal 1 -0 0
    outer loop
      vertex 2 -39.5 22
      vertex 2 -38.5 4.90792
      vertex 2 -38.5 22
    endloop
  endfacet
  facet normal 1 0 0
    outer loop
      vertex 2 -39.5 2
      vertex 2 -38.5 4.90792
      vertex 2 -39.5 22
    endloop
  endfacet
  facet normal 1 0 0
    outer loop
      vertex 2 -38.5 4.90792
      vertex 2 -39.5 2
      vertex 2 -38.5 2.00001
    endloop
  endfacet
  facet normal 1 0 0
    outer loop
      vertex 2 -38.5 2.00001
      vertex 2 -39.5 2
      vertex 2 -38.5 2
    endloop
  endfacet
  facet normal 1 0 0
    outer loop
      vertex 2 -35.9134 2.38062
      vertex 2 -38.5 2.00001
      vertex 2 -34 2
    endloop
  endfacet
  facet normal 1 0 0
    outer loop
      vertex 2 -37.5355 3.46448
      vertex 2 -38.5 2.00001
      vertex 2 -35.9134 2.38062
    endloop
  endfacet
  facet normal 1 0 0
    outer loop
      vertex 2 -38.5 2.00001
      vertex 2 -37.5355 3.46448
      vertex 2 -38.5 4.90792
    endloop
  endfacet
  facet normal 0 0.83147 0.55557
    outer loop
      vertex 2 -37.5355 3.46448
      vertex -2 -38.5 4.90792
      vertex 2 -38.5 4.90792
    endloop
  endfacet
  facet normal 0 0.83147 0.55557
    outer loop
      vertex -2 -38.5 4.90792
      vertex 2 -37.5355 3.46448
      vertex -2 -37.5355 3.46448
    endloop
  endfacet
  facet normal -0 0.55557 0.83147
    outer loop
      vertex -2 -35.9134 2.38062
      vertex 2 -37.5355 3.46448
      vertex 2 -35.9134 2.38062
    endloop
  endfacet
  facet normal 0 0.55557 0.83147
    outer loop
      vertex 2 -37.5355 3.46448
      vertex -2 -35.9134 2.38062
      vertex -2 -37.5355 3.46448
    endloop
  endfacet
  facet normal -0 0.195098 0.980784
    outer loop
      vertex -2 -34 2
      vertex 2 -35.9134 2.38062
      vertex 2 -34 2
    endloop
  endfacet
  facet normal 0 0.195098 0.980784
    outer loop
      vertex 2 -35.9134 2.38062
      vertex -2 -34 2
      vertex -2 -35.9134 2.38062
    endloop
  endfacet
  facet normal 0 -3.07295e-06 -1
    outer loop
      vertex -2 -38.5 2.00001
      vertex 2 -34 2
      vertex 2 -38.5 2.00001
    endloop
  endfacet
  facet normal -0 -3.07295e-06 -1
    outer loop
      vertex 2 -34 2
      vertex -2 -38.5 2.00001
      vertex -2 -34 2
    endloop
  endfacet
  facet normal -1 0 0
    outer loop
      vertex -2 -39.5 2
      vertex -2 -38.5 22
      vertex -2 -38.5 2
    endloop
  endfacet
  facet normal -1 -0 0
    outer loop
      vertex -2 -38.5 22
      vertex -2 -39.5 2
      vertex -2 -39.5 22
    endloop
  endfacet
  facet normal -0 0 1
    outer loop
      vertex -2 -38.5 22
      vertex 2 -39.5 22
      vertex 2 -38.5 22
    endloop
  endfacet
  facet normal 0 0 1
    outer loop
      vertex 2 -39.5 22
      vertex -2 -38.5 22
      vertex -2 -39.5 22
    endloop
  endfacet
  facet normal 0 -1 0
    outer loop
      vertex -2 -39.5 22
      vertex -1 -39.5 21.5
      vertex 2 -39.5 22
    endloop
  endfacet
  facet normal 0 -1 0
    outer loop
      vertex -2 -39.5 22
      vertex -1 -39.5 20
      vertex -1 -39.5 21.5
    endloop
  endfacet
  facet normal 0 -1 -0
    outer loop
      vertex -1 -39.5 20
      vertex -2 -39.5 2
      vertex 1 -39.5 20
    endloop
  endfacet
  facet normal 0 -1 0
    outer loop
      vertex -2 -39.5 2
      vertex -1 -39.5 20
      vertex -2 -39.5 22
    endloop
  endfacet
  facet normal 0 -1 0
    outer loop
      vertex 1 -39.5 21.5
      vertex 2 -39.5 22
      vertex -1 -39.5 21.5
    endloop
  endfacet
  facet normal 0 -1 0
    outer loop
      vertex 1 -39.5 20
      vertex 2 -39.5 22
      vertex 1 -39.5 21.5
    endloop
  endfacet
  facet normal 0 -1 0
    outer loop
      vertex 2 -39.5 2
      vertex 1 -39.5 20
      vertex -2 -39.5 2
    endloop
  endfacet
  facet normal 0 -1 0
    outer loop
      vertex 1 -39.5 20
      vertex 2 -39.5 2
      vertex 2 -39.5 22
    endloop
  endfacet
  facet normal 0 1 0
    outer loop
      vertex 2 -38.5 2.00001
      vertex 2 -38.5 2
      vertex -2 -38.5 2.00001
    endloop
  endfacet
  facet normal 0 1 -0
    outer loop
      vertex 2 -38.5 4.90792
      vertex -2 -38.5 22
      vertex 2 -38.5 22
    endloop
  endfacet
  facet normal 0 1 -0
    outer loop
      vertex -2 -38.5 4.90792
      vertex -2 -38.5 22
      vertex 2 -38.5 4.90792
    endloop
  endfacet
  facet normal 0 1 0
    outer loop
      vertex -2 -38.5 2
      vertex -2 -38.5 4.90792
      vertex -2 -38.5 2.00001
    endloop
  endfacet
  facet normal 0 1 0
    outer loop
      vertex -2 -38.5 4.90792
      vertex -2 -38.5 2
      vertex -2 -38.5 22
    endloop
  endfacet
  facet normal 0 1 0
    outer loop
      vertex -2 -38.5 2
      vertex -2 -38.5 2.00001
      vertex 2 -38.5 2
    endloop
  endfacet
  facet normal 0 0 -1
    outer loop
      vertex -1 -41 20
      vertex 1 -39.5 20
      vertex 1 -41 20
    endloop
  endfacet
  facet normal -0 0 -1
    outer loop
      vertex 1 -39.5 20
      vertex -1 -41 20
      vertex -1 -39.5 20
    endloop
  endfacet
  facet normal 1 0 -0
    outer loop
      vertex 1 -39.5 20
      vertex 1 -39.5 21.5
      vertex 1 -41 20
    endloop
  endfacet
  facet normal 0 -0.707107 0.707107
    outer loop
      vertex -1 -41 20
      vertex 1 -39.5 21.5
      vertex -1 -39.5 21.5
    endloop
  endfacet
  facet normal 0 -0.707107 0.707107
    outer loop
      vertex 1 -39.5 21.5
      vertex -1 -41 20
      vertex 1 -41 20
    endloop
  endfacet
  facet normal -1 0 -0
    outer loop
      vertex -1 -39.5 21.5
      vertex -1 -39.5 20
      vertex -1 -41 20
    endloop
  endfacet
  facet normal 0.994522 0.104529 0
    outer loop
      vertex 39.7372 2.5 2
      vertex 39.1259 8.31647 0
      vertex 39.1259 8.31647 2
    endloop
  endfacet
  facet normal 0.994522 0.104529 0
    outer loop
      vertex 39.1259 8.31647 0
      vertex 39.7372 2.5 2
      vertex 39.7372 2.5 0
    endloop
  endfacet
  facet normal -0.994522 0.104528 0
    outer loop
      vertex -40 0 0
      vertex -39.1259 8.31647 2
      vertex -39.1259 8.31647 0
    endloop
  endfacet
  facet normal -0.994522 0.104528 0
    outer loop
      vertex -39.1259 8.31647 2
      vertex -40 0 0
      vertex -40 0 2
    endloop
  endfacet
  facet normal 0 1 -0
    outer loop
      vertex 4.18114 39.7809 0
      vertex -4.18114 39.7809 2
      vertex 4.18114 39.7809 2
    endloop
  endfacet
  facet normal 0 1 0
    outer loop
      vertex -4.18114 39.7809 2
      vertex 4.18114 39.7809 0
      vertex -4.18114 39.7809 0
    endloop
  endfacet
  facet normal 0 -1 0
    outer loop
      vertex -4.18114 -39.7809 0
      vertex 4.18114 -39.7809 2
      vertex -4.18114 -39.7809 2
    endloop
  endfacet
  facet normal 0 -1 -0
    outer loop
      vertex 4.18114 -39.7809 2
      vertex -4.18114 -39.7809 0
      vertex 4.18114 -39.7809 0
    endloop
  endfacet
  facet normal 0.587785 0.809017 -0
    outer loop
      vertex 26.7652 29.7258 0
      vertex 20 34.641 2
      vertex 26.7652 29.7258 2
    endloop
  endfacet
  facet normal 0.587785 0.809017 0
    outer loop
      vertex 20 34.641 2
      vertex 26.7652 29.7258 0
      vertex 20 34.641 0
    endloop
  endfacet
  facet normal 0.406737 0.913545 -0
    outer loop
      vertex 20 34.641 0
      vertex 12.3607 38.0423 2
      vertex 20 34.641 2
    endloop
  endfacet
  facet normal 0.406737 0.913545 0
    outer loop
      vertex 12.3607 38.0423 2
      vertex 20 34.641 0
      vertex 12.3607 38.0423 0
    endloop
  endfacet
  facet normal -0.743145 0.669131 0
    outer loop
      vertex -32.3607 23.5114 0
      vertex -26.7652 29.7258 2
      vertex -26.7652 29.7258 0
    endloop
  endfacet
  facet normal -0.743145 0.669131 0
    outer loop
      vertex -26.7652 29.7258 2
      vertex -32.3607 23.5114 0
      vertex -32.3607 23.5114 2
    endloop
  endfacet
  facet normal -0.866025 0.5 0
    outer loop
      vertex -36.5418 16.2695 0
      vertex -32.3607 23.5114 2
      vertex -32.3607 23.5114 0
    endloop
  endfacet
  facet normal -0.866025 0.5 0
    outer loop
      vertex -32.3607 23.5114 2
      vertex -36.5418 16.2695 0
      vertex -36.5418 16.2695 2
    endloop
  endfacet
  facet normal -0.406737 0.913545 0
    outer loop
      vertex -12.3607 38.0423 0
      vertex -20 34.641 2
      vertex -12.3607 38.0423 2
    endloop
  endfacet
  facet normal -0.406737 0.913545 0
    outer loop
      vertex -20 34.641 2
      vertex -12.3607 38.0423 0
      vertex -20 34.641 0
    endloop
  endfacet
  facet normal 0.951056 -0.309017 0
    outer loop
      vertex 36.5418 -16.2695 2
      vertex 39.1259 -8.31647 0
      vertex 39.1259 -8.31647 2
    endloop
  endfacet
  facet normal 0.951056 -0.309017 0
    outer loop
      vertex 39.1259 -8.31647 0
      vertex 36.5418 -16.2695 2
      vertex 36.5418 -16.2695 0
    endloop
  endfacet
  facet normal 0.866025 0.5 0
    outer loop
      vertex 36.5418 16.2695 2
      vertex 32.3607 23.5114 0
      vertex 32.3607 23.5114 2
    endloop
  endfacet
  facet normal 0.866025 0.5 0
    outer loop
      vertex 32.3607 23.5114 0
      vertex 36.5418 16.2695 2
      vertex 36.5418 16.2695 0
    endloop
  endfacet
  facet normal 0.951056 0.309017 0
    outer loop
      vertex 39.1259 8.31647 2
      vertex 36.5418 16.2695 0
      vertex 36.5418 16.2695 2
    endloop
  endfacet
  facet normal 0.951056 0.309017 0
    outer loop
      vertex 36.5418 16.2695 0
      vertex 39.1259 8.31647 2
      vertex 39.1259 8.31647 0
    endloop
  endfacet
  facet normal 0.743145 0.669131 0
    outer loop
      vertex 32.3607 23.5114 2
      vertex 26.7652 29.7258 0
      vertex 26.7652 29.7258 2
    endloop
  endfacet
  facet normal 0.743145 0.669131 0
    outer loop
      vertex 26.7652 29.7258 0
      vertex 32.3607 23.5114 2
      vertex 32.3607 23.5114 0
    endloop
  endfacet
  facet normal 0.207912 0.978148 -0
    outer loop
      vertex 12.3607 38.0423 0
      vertex 4.18114 39.7809 2
      vertex 12.3607 38.0423 2
    endloop
  endfacet
  facet normal 0.207912 0.978148 0
    outer loop
      vertex 4.18114 39.7809 2
      vertex 12.3607 38.0423 0
      vertex 4.18114 39.7809 0
    endloop
  endfacet
  facet normal -0.951056 0.309017 0
    outer loop
      vertex -39.1259 8.31647 0
      vertex -36.5418 16.2695 2
      vertex -36.5418 16.2695 0
    endloop
  endfacet
  facet normal -0.951056 0.309017 0
    outer loop
      vertex -36.5418 16.2695 2
      vertex -39.1259 8.31647 0
      vertex -39.1259 8.31647 2
    endloop
  endfacet
  facet normal -0.587785 0.809017 0
    outer loop
      vertex -20 34.641 0
      vertex -26.7652 29.7258 2
      vertex -20 34.641 2
    endloop
  endfacet
  facet normal -0.587785 0.809017 0
    outer loop
      vertex -26.7652 29.7258 2
      vertex -20 34.641 0
      vertex -26.7652 29.7258 0
    endloop
  endfacet
  facet normal -0.207912 0.978148 0
    outer loop
      vertex -4.18114 39.7809 0
      vertex -12.3607 38.0423 2
      vertex -4.18114 39.7809 2
    endloop
  endfacet
  facet normal -0.207912 0.978148 0
    outer loop
      vertex -12.3607 38.0423 2
      vertex -4.18114 39.7809 0
      vertex -12.3607 38.0423 0
    endloop
  endfacet
  facet normal 0.994522 -0.104529 0
    outer loop
      vertex 39.1259 -8.31647 2
      vertex 39.7372 -2.5 0
      vertex 39.7372 -2.5 2
    endloop
  endfacet
  facet normal 0.994522 -0.104529 0
    outer loop
      vertex 39.7372 -2.5 0
      vertex 39.1259 -8.31647 2
      vertex 39.1259 -8.31647 0
    endloop
  endfacet
  facet normal 0 0 -1
    outer loop
      vertex 35 -2.5 0
      vertex 39.1259 -8.31647 0
      vertex 36.5418 -16.2695 0
    endloop
  endfacet
  facet normal 0 0 -1
    outer loop
      vertex 39.1259 -8.31647 0
      vertex 35 -2.5 0
      vertex 39.7372 -2.5 0
    endloop
  endfacet
  facet normal 0 0 -1
    outer loop
      vertex 26.7652 -29.7258 0
      vertex 35 -2.5 0
      vertex 32.3607 -23.5114 0
    endloop
  endfacet
  facet normal 0 0 -1
    outer loop
      vertex 32.3607 -23.5114 0
      vertex 35 -2.5 0
      vertex 36.5418 -16.2695 0
    endloop
  endfacet
  facet normal 0 0 -1
    outer loop
      vertex 35 2.5 0
      vertex 39.1259 8.31647 0
      vertex 39.7372 2.5 0
    endloop
  endfacet
  facet normal -0 0 -1
    outer loop
      vertex 39.1259 8.31647 0
      vertex 35 2.5 0
      vertex 36.5418 16.2695 0
    endloop
  endfacet
  facet normal 0 0 -1
    outer loop
      vertex 35 2.5 0
      vertex 32.3607 23.5114 0
      vertex 36.5418 16.2695 0
    endloop
  endfacet
  facet normal 0 0 -1
    outer loop
      vertex 20 -34.641 0
      vertex 35 -2.5 0
      vertex 26.7652 -29.7258 0
    endloop
  endfacet
  facet normal 0 0 -1
    outer loop
      vertex 12.3607 -38.0423 0
      vertex 35 -2.5 0
      vertex 20 -34.641 0
    endloop
  endfacet
  facet normal 0 0 -1
    outer loop
      vertex 35 2.5 0
      vertex 26.7652 29.7258 0
      vertex 32.3607 23.5114 0
    endloop
  endfacet
  facet normal 0 0 -1
    outer loop
      vertex 4.18114 -39.7809 0
      vertex 35 -2.5 0
      vertex 12.3607 -38.0423 0
    endloop
  endfacet
  facet normal 0 0 -1
    outer loop
      vertex 35 2.5 0
      vertex 20 34.641 0
      vertex 26.7652 29.7258 0
    endloop
  endfacet
  facet normal 0 0 -1
    outer loop
      vertex -4.18114 -39.7809 0
      vertex 35 -2.5 0
      vertex 4.18114 -39.7809 0
    endloop
  endfacet
  facet normal 0 0 -1
    outer loop
      vertex 35 2.5 0
      vertex 12.3607 38.0423 0
      vertex 20 34.641 0
    endloop
  endfacet
  facet normal 0 0 -1
    outer loop
      vertex -12.3607 -38.0423 0
      vertex 35 -2.5 0
      vertex -4.18114 -39.7809 0
    endloop
  endfacet
  facet normal 0 0 -1
    outer loop
      vertex 35 2.5 0
      vertex 4.18114 39.7809 0
      vertex 12.3607 38.0423 0
    endloop
  endfacet
  facet normal 0 0 -1
    outer loop
      vertex -20 -34.641 0
      vertex 35 -2.5 0
      vertex -12.3607 -38.0423 0
    endloop
  endfacet
  facet normal 0 0 -1
    outer loop
      vertex 35 2.5 0
      vertex -4.18114 39.7809 0
      vertex 4.18114 39.7809 0
    endloop
  endfacet
  facet normal 0 0 -1
    outer loop
      vertex -26.7652 -29.7258 0
      vertex 35 -2.5 0
      vertex -20 -34.641 0
    endloop
  endfacet
  facet normal 0 0 -1
    outer loop
      vertex 35 2.5 0
      vertex -12.3607 38.0423 0
      vertex -4.18114 39.7809 0
    endloop
  endfacet
  facet normal 0 0 -1
    outer loop
      vertex -32.3607 -23.5114 0
      vertex 35 -2.5 0
      vertex -26.7652 -29.7258 0
    endloop
  endfacet
  facet normal 0 0 -1
    outer loop
      vertex 35 2.5 0
      vertex -20 34.641 0
      vertex -12.3607 38.0423 0
    endloop
  endfacet
  facet normal 0 0 -1
    outer loop
      vertex -36.5418 -16.2695 0
      vertex 35 -2.5 0
      vertex -32.3607 -23.5114 0
    endloop
  endfacet
  facet normal 0 0 -1
    outer loop
      vertex 35 2.5 0
      vertex -26.7652 29.7258 0
      vertex -20 34.641 0
    endloop
  endfacet
  facet normal 0 0 -1
    outer loop
      vertex -39.1259 -8.31647 0
      vertex 35 -2.5 0
      vertex -36.5418 -16.2695 0
    endloop
  endfacet
  facet normal 0 0 -1
    outer loop
      vertex 35 2.5 0
      vertex -32.3607 23.5114 0
      vertex -26.7652 29.7258 0
    endloop
  endfacet
  facet normal -0 0 -1
    outer loop
      vertex 35 -2.5 0
      vertex -39.1259 -8.31647 0
      vertex 35 2.5 0
    endloop
  endfacet
  facet normal 0 0 -1
    outer loop
      vertex 35 2.5 0
      vertex -36.5418 16.2695 0
      vertex -32.3607 23.5114 0
    endloop
  endfacet
  facet normal 0 0 -1
    outer loop
      vertex -40 0 0
      vertex 35 2.5 0
      vertex -39.1259 -8.31647 0
    endloop
  endfacet
  facet normal 0 0 -1
    outer loop
      vertex 35 2.5 0
      vertex -39.1259 8.31647 0
      vertex -36.5418 16.2695 0
    endloop
  endfacet
  facet normal -0 0 -1
    outer loop
      vertex 35 2.5 0
      vertex -40 0 0
      vertex -39.1259 8.31647 0
    endloop
  endfacet
  facet normal 0.207912 -0.978148 0
    outer loop
      vertex 4.18114 -39.7809 0
      vertex 12.3607 -38.0423 2
      vertex 4.18114 -39.7809 2
    endloop
  endfacet
  facet normal 0.207912 -0.978148 0
    outer loop
      vertex 12.3607 -38.0423 2
      vertex 4.18114 -39.7809 0
      vertex 12.3607 -38.0423 0
    endloop
  endfacet
  facet normal 0.866025 -0.5 0
    outer loop
      vertex 32.3607 -23.5114 2
      vertex 36.5418 -16.2695 0
      vertex 36.5418 -16.2695 2
    endloop
  endfacet
  facet normal 0.866025 -0.5 0
    outer loop
      vertex 36.5418 -16.2695 0
      vertex 32.3607 -23.5114 2
      vertex 32.3607 -23.5114 0
    endloop
  endfacet
  facet normal -0.866025 -0.5 0
    outer loop
      vertex -32.3607 -23.5114 0
      vertex -36.5418 -16.2695 2
      vertex -36.5418 -16.2695 0
    endloop
  endfacet
  facet normal -0.866025 -0.5 0
    outer loop
      vertex -36.5418 -16.2695 2
      vertex -32.3607 -23.5114 0
      vertex -32.3607 -23.5114 2
    endloop
  endfacet
  facet normal 0.587785 -0.809017 0
    outer loop
      vertex 20 -34.641 0
      vertex 26.7652 -29.7258 2
      vertex 20 -34.641 2
    endloop
  endfacet
  facet normal 0.587785 -0.809017 0
    outer loop
      vertex 26.7652 -29.7258 2
      vertex 20 -34.641 0
      vertex 26.7652 -29.7258 0
    endloop
  endfacet
  facet normal 0.406737 -0.913545 0
    outer loop
      vertex 12.3607 -38.0423 0
      vertex 20 -34.641 2
      vertex 12.3607 -38.0423 2
    endloop
  endfacet
  facet normal 0.406737 -0.913545 0
    outer loop
      vertex 20 -34.641 2
      vertex 12.3607 -38.0423 0
      vertex 20 -34.641 0
    endloop
  endfacet
  facet normal -0.207912 -0.978148 0
    outer loop
      vertex -12.3607 -38.0423 0
      vertex -4.18114 -39.7809 2
      vertex -12.3607 -38.0423 2
    endloop
  endfacet
  facet normal -0.207912 -0.978148 -0
    outer loop
      vertex -4.18114 -39.7809 2
      vertex -12.3607 -38.0423 0
      vertex -4.18114 -39.7809 0
    endloop
  endfacet
  facet normal -0.743145 -0.669131 0
    outer loop
      vertex -26.7652 -29.7258 0
      vertex -32.3607 -23.5114 2
      vertex -32.3607 -23.5114 0
    endloop
  endfacet
  facet normal -0.743145 -0.669131 0
    outer loop
      vertex -32.3607 -23.5114 2
      vertex -26.7652 -29.7258 0
      vertex -26.7652 -29.7258 2
    endloop
  endfacet
  facet normal -0.951056 -0.309017 0
    outer loop
      vertex -36.5418 -16.2695 0
      vertex -39.1259 -8.31647 2
      vertex -39.1259 -8.31647 0
    endloop
  endfacet
  facet normal -0.951056 -0.309017 0
    outer loop
      vertex -39.1259 -8.31647 2
      vertex -36.5418 -16.2695 0
      vertex -36.5418 -16.2695 2
    endloop
  endfacet
  facet normal -0.994522 -0.104528 0
    outer loop
      vertex -39.1259 -8.31647 0
      vertex -40 0 2
      vertex -40 0 0
    endloop
  endfacet
  facet normal -0.994522 -0.104528 0
    outer loop
      vertex -40 0 2
      vertex -39.1259 -8.31647 0
      vertex -39.1259 -8.31647 2
    endloop
  endfacet
  facet normal 0.743145 -0.669131 0
    outer loop
      vertex 26.7652 -29.7258 2
      vertex 32.3607 -23.5114 0
      vertex 32.3607 -23.5114 2
    endloop
  endfacet
  facet normal 0.743145 -0.669131 0
    outer loop
      vertex 32.3607 -23.5114 0
      vertex 26.7652 -29.7258 2
      vertex 26.7652 -29.7258 0
    endloop
  endfacet
  facet normal -0.406737 -0.913545 0
    outer loop
      vertex -20 -34.641 0
      vertex -12.3607 -38.0423 2
      vertex -20 -34.641 2
    endloop
  endfacet
  facet normal -0.406737 -0.913545 -0
    outer loop
      vertex -12.3607 -38.0423 2
      vertex -20 -34.641 0
      vertex -12.3607 -38.0423 0
    endloop
  endfacet
  facet normal -0.587785 -0.809017 0
    outer loop
      vertex -26.7652 -29.7258 0
      vertex -20 -34.641 2
      vertex -26.7652 -29.7258 2
    endloop
  endfacet
  facet normal -0.587785 -0.809017 -0
    outer loop
      vertex -20 -34.641 2
      vertex -26.7652 -29.7258 0
      vertex -20 -34.641 0
    endloop
  endfacet
  facet normal 1 -0 0
    outer loop
      vertex 35 -2.5 2
      vertex 35 2.5 0
      vertex 35 2.5 2
    endloop
  endfacet
  facet normal 1 0 0
    outer loop
      vertex 35 2.5 0
      vertex 35 -2.5 2
      vertex 35 -2.5 0
    endloop
  endfacet
  facet normal 0 -1 0
    outer loop
      vertex 35 2.5 0
      vertex 39.7372 2.5 2
      vertex 35 2.5 2
    endloop
  endfacet
  facet normal 0 -1 -0
    outer loop
      vertex 39.7372 2.5 2
      vertex 35 2.5 0
      vertex 39.7372 2.5 0
    endloop
  endfacet
  facet normal 0 1 -0
    outer loop
      vertex 39.7372 -2.5 0
      vertex 35 -2.5 2
      vertex 39.7372 -2.5 2
    endloop
  endfacet
  facet normal 0 1 0
    outer loop
      vertex 35 -2.5 2
      vertex 39.7372 -2.5 0
      vertex 35 -2.5 0
    endloop
  endfacet
endsolid OpenSCAD_Model
